<svg width="960" height="478" viewBox="0 0 960 478" fill="none" xmlns="http://www.w3.org/2000/svg">
<path d="M518.2 224.15H504.9C490.6 224.15 487.1 226.05 487.1 239.95V246.75C487.1 258.35 489.5 260.95 504.1 260.95H517.9C533.7 260.95 536.8 259.45 536.8 253.35V248.45H511.2V235.75H554.1V248.75C554.1 269.95 547.5 274.95 520 274.95H502.4C477.3 274.95 470.1 269.45 470.1 248.85V238.75C470.1 215.95 476.2 209.55 502.8 209.55H518.2C546.8 209.55 554 214.55 554 229.85H536.6C536.6 225.15 534.1 224.15 518.2 224.15Z" fill="white"/>
<path d="M595 275.25C569.1 275.25 562.1 269.55 562.1 247.95V239.75C562.1 214.35 569.4 210.15 595.6 210.15H610.6C638.2 210.15 645.1 213.95 645.1 232.25H627.6C627.5 227.15 625.8 224.55 609.7 224.55H596.7C581.5 224.55 579.1 225.75 579.1 239.55V246.65C579.1 259.25 581.5 261.05 596.1 261.05H609.9C624.8 261.05 627.8 259.85 627.7 252.55H645.1C645.2 269.85 640.4 275.25 610.3 275.25H595Z" fill="white"/>
<path d="M700.5 224.55H688.1C672.2 224.55 669.9 227.05 669.9 240.05V246.85C669.9 258.45 672.1 260.95 687.5 260.95H700.9C717.4 260.95 720 259.05 720 246.65V239.75C719.9 226.65 717.5 224.55 700.5 224.55ZM701.1 275.15H686.2C659.2 275.15 652.8 270.05 652.8 247.55V239.75C652.8 215.55 658.8 209.85 686.5 209.85H701.4C730.4 209.85 736.8 215.85 736.8 239.45V247.35C736.9 271.35 730.4 275.15 701.1 275.15Z" fill="white"/>
<path d="M434.8 210.15H408.1L381.1 258.35L391.3 275.15H391.4L400 259.45H442.7L451.2 275.15H471.1L434.8 210.15ZM407.4 246.55L421.3 222.35H422.1L435.5 246.55H407.4Z" fill="white"/>
<path d="M241.799 311.35L232.399 292.35H238.699L244.899 305.05L250.699 292.35H256.999L247.599 311.45V324.05H241.799V311.35Z" fill="white"/>
<path d="M264.6 300.35C269.4 300.35 274.9 302.85 274.9 312.35C274.9 322.15 269.4 324.45 264.6 324.45C259.8 324.45 254.3 322.15 254.3 312.35C254.3 302.85 259.9 300.35 264.6 300.35ZM264.6 320.45C268.2 320.45 269 316.25 269 312.35C269 308.45 268.2 304.35 264.6 304.35C261 304.35 260.1 308.45 260.1 312.35C260.1 316.25 261 320.45 264.6 320.45Z" fill="white"/>
<path d="M297.8 320.15C297.8 321.65 297.8 322.95 298 324.05H292.7C292.7 322.85 292.5 321.65 292.5 320.45H292.4C291.3 322.15 289.9 324.35 286.2 324.35C280.9 324.35 279.3 320.45 279.3 315.65V300.55H284.9V314.55C284.9 318.15 285.9 319.65 288.3 319.65C291.3 319.65 292.2 316.95 292.2 313.95V300.55H297.8V320.15Z" fill="white"/>
<path d="M303.099 304.55C303.099 303.05 303.099 301.75 302.899 300.65H307.999C307.999 302.05 308.199 303.55 308.199 304.95H308.299C308.999 303.15 310.799 300.35 314.199 300.35C314.599 300.35 314.799 300.45 315.199 300.45V305.75C314.699 305.65 314.199 305.55 313.599 305.55C311.299 305.55 308.699 306.95 308.699 311.35V324.15H303.099V304.55Z" fill="white"/>
<path d="M344.899 316.45H333.999L331.699 324.05H325.899L336.499 292.35H342.899L353.099 324.05H347.099L344.899 316.45ZM343.699 311.95L339.699 297.15H339.599L335.199 311.95H343.699Z" fill="white"/>
<path d="M356.299 327.65C357.599 328.35 360.199 329.65 363.199 329.65C368.499 329.65 369.399 325.95 369.399 322.35V320.15H369.299C368.399 321.95 366.799 324.05 363.099 324.05C359.799 324.05 354.899 321.85 354.899 312.45C354.899 306.05 357.199 300.35 363.299 300.35C366.699 300.35 368.299 302.35 369.499 304.35H369.699C369.699 303.15 369.799 301.95 369.899 300.75H374.999C374.899 301.95 374.799 303.25 374.799 304.45V321.65C374.799 328.95 372.599 334.15 363.999 334.15C360.299 334.15 357.299 333.15 355.999 332.65L356.299 327.65ZM364.399 319.95C367.899 319.95 369.299 317.45 369.299 312.15C369.299 307.25 367.399 304.65 364.799 304.65C361.899 304.65 360.699 307.45 360.699 312.15C360.799 317.55 362.499 319.95 364.399 319.95Z" fill="white"/>
<path d="M380.099 304.55C380.099 303.05 380.099 301.75 379.899 300.65H384.999C384.999 302.05 385.199 303.55 385.199 304.95H385.299C385.999 303.15 387.799 300.35 391.199 300.35C391.599 300.35 391.799 300.45 392.199 300.45V305.75C391.699 305.65 391.199 305.55 390.599 305.55C388.299 305.55 385.699 306.95 385.699 311.35V324.15H380.099V304.55Z" fill="white"/>
<path d="M396.399 290.75H402.199V296.25H396.399V290.75ZM396.499 300.65H402.099V324.05H396.499V300.65Z" fill="white"/>
<path d="M423.6 323.45C422.3 323.95 420.3 324.45 418.1 324.45C410.4 324.45 407.1 319.05 407.1 312.45C407.1 305.75 410.5 300.35 418.4 300.35C420.2 300.35 422.3 300.85 423.3 301.35L423 305.75C422 305.25 420.6 304.65 419 304.65C414.7 304.65 412.9 307.55 412.9 312.45C412.9 316.85 415 320.15 419.3 320.15C420.7 320.15 422.5 319.55 423.3 319.05L423.6 323.45Z" fill="white"/>
<path d="M445.499 320.15C445.499 321.65 445.499 322.95 445.699 324.05H440.399C440.399 322.85 440.199 321.65 440.199 320.45H440.099C438.999 322.15 437.599 324.35 433.899 324.35C428.599 324.35 426.999 320.45 426.999 315.65V300.55H432.599V314.55C432.599 318.15 433.599 319.65 435.999 319.65C438.999 319.65 439.899 316.95 439.899 313.95V300.55H445.499V320.15Z" fill="white"/>
<path d="M451.1 290.05H456.7V324.05H451.1V290.05Z" fill="white"/>
<path d="M464.499 295.85L470.099 294.15V300.65H474.799V304.75H470.099V316.85C470.099 319.35 470.999 320.05 472.599 320.05C473.599 320.05 474.299 319.75 474.699 319.55V323.55C473.799 323.95 472.599 324.35 470.899 324.35C466.699 324.35 464.399 322.45 464.399 317.55V304.75H460.699V300.65H464.399V295.85H464.499Z" fill="white"/>
<path d="M496.799 320.15C496.799 321.65 496.799 322.95 496.999 324.05H491.699C491.699 322.85 491.499 321.65 491.499 320.45H491.399H491.499C490.399 322.15 488.999 324.35 485.299 324.35C479.999 324.35 478.399 320.45 478.399 315.65V300.55H483.999V314.55C483.999 318.15 484.999 319.65 487.399 319.65C490.399 319.65 491.299 316.95 491.299 313.95V300.55H496.899V320.15H496.799Z" fill="white"/>
<path d="M502.099 304.55C502.099 303.05 502.099 301.75 501.899 300.65H506.999C506.999 302.05 507.199 303.55 507.199 304.95H507.299C507.999 303.15 509.799 300.35 513.199 300.35C513.599 300.35 513.799 300.45 514.199 300.45V305.75C513.699 305.65 513.199 305.55 512.599 305.55C510.299 305.55 507.699 306.95 507.699 311.35V324.15H502.099V304.55Z" fill="white"/>
<path d="M534.6 322.95C533.4 323.45 531 324.45 527.6 324.45C520.1 324.45 516.8 319.05 516.8 312.75C516.8 305.75 520.5 300.35 526.4 300.35C531.4 300.35 535.7 303.35 535.7 312.85V313.95H522.2C522.2 317.95 523.8 320.35 528.1 320.35C531.6 320.35 533.2 319.35 534.2 318.55L534.6 322.95ZM530.4 310.35C530.4 306.25 529 304.15 526.5 304.15C523.5 304.15 522.3 307.25 522.3 310.35H530.4Z" fill="white"/>
<path d="M572.899 323.35C571.699 323.95 568.899 324.45 565.999 324.45C556.399 324.45 551.399 317.45 551.399 308.15C551.399 298.85 556.299 291.85 565.799 291.85C568.999 291.85 571.699 292.75 572.799 293.15L572.499 298.35C571.299 297.75 569.499 296.65 566.499 296.65C561.699 296.65 557.599 299.95 557.599 308.15C557.599 316.35 561.699 319.65 566.499 319.65C569.299 319.65 571.199 318.95 572.499 318.05L572.899 323.35Z" fill="white"/>
<path d="M586.9 300.35C591.7 300.35 597.2 302.85 597.2 312.35C597.2 322.15 591.7 324.45 586.9 324.45C582.1 324.45 576.6 322.15 576.6 312.35C576.6 302.85 582.1 300.35 586.9 300.35ZM586.9 320.45C590.5 320.45 591.3 316.25 591.3 312.35C591.3 308.45 590.5 304.35 586.9 304.35C583.3 304.35 582.4 308.45 582.4 312.35C582.4 316.25 583.2 320.45 586.9 320.45Z" fill="white"/>
<path d="M601.399 304.45C601.399 302.75 601.299 301.45 601.199 300.65H606.799C606.799 301.85 606.999 303.15 606.999 304.35H607.099C607.999 302.55 609.799 300.35 612.999 300.35C616.999 300.35 618.199 302.85 618.899 304.05C619.999 302.45 621.699 300.35 625.199 300.35C630.299 300.35 631.899 303.95 631.899 309.65V324.05H626.299V309.25C626.299 306.35 625.399 304.85 623.299 304.85C620.799 304.85 619.499 307.25 619.499 309.75V323.95H613.899V309.15C613.899 306.25 612.999 304.75 610.899 304.75C608.399 304.75 607.099 307.15 607.099 309.65V323.85H601.499V304.45H601.399Z" fill="white"/>
<path d="M637 304.65C637 302.95 637 301.55 636.8 300.65H642.1C642.2 301.35 642.3 302.65 642.3 304.25H642.4C643.3 302.25 645 300.25 648.6 300.25C654.4 300.25 656.8 305.75 656.8 312.25C656.8 319.85 653.8 324.35 648.7 324.35C645.3 324.35 643.5 322.45 642.7 320.65H642.6V333.85H637V304.65ZM646.9 320.25C650 320.25 651.1 317.25 651.1 312.55C651.1 307.15 650.2 304.45 647 304.45C643.7 304.45 642.5 308.05 642.5 312.45C642.6 316.95 643.8 320.25 646.9 320.25Z" fill="white"/>
<path d="M662.399 302.05C663.999 301.35 666.199 300.35 669.799 300.35C677.099 300.35 678.699 303.85 678.699 309.75V319.95C678.699 321.65 678.899 323.15 678.999 324.05H673.899C673.599 323.15 673.599 322.05 673.599 320.85H673.499C672.099 322.75 670.299 324.35 666.999 324.35C663.399 324.35 659.999 321.85 659.999 317.45C659.999 311.15 665.199 309.55 672.299 309.55H673.399V308.75C673.399 306.45 672.299 304.35 668.999 304.35C666.199 304.35 663.699 305.75 662.599 306.65L662.399 302.05ZM673.399 312.65H672.899C668.099 312.65 665.199 313.65 665.199 317.05C665.199 319.15 666.599 320.65 668.799 320.65C672.199 320.65 673.399 318.15 673.399 313.95V312.65Z" fill="white"/>
<path d="M683.899 304.55C683.899 303.05 683.899 301.75 683.699 300.65H688.999C688.999 301.85 689.199 303.05 689.199 304.25H689.299C690.099 302.85 691.699 300.35 695.499 300.35C700.799 300.35 702.399 304.25 702.399 309.05V324.15H696.799V310.15C696.799 306.55 695.899 305.05 693.599 305.05C690.699 305.05 689.599 307.55 689.599 310.55V324.15H683.999V304.55H683.899Z" fill="white"/>
<path d="M715.699 318.35L720.299 300.65H725.699L717.199 328.45C716.199 331.65 714.299 334.05 710.499 334.05C708.999 334.05 707.699 333.75 706.899 333.45L707.199 329.15C707.799 329.35 708.499 329.65 709.299 329.65C710.999 329.65 711.699 328.65 712.399 326.25L712.799 324.25L704.999 300.65H710.799L715.699 318.35Z" fill="white"/>
<path d="M342.799 209.05L303.199 143.85L223.199 275.25L342.799 209.05Z" fill="#AE132A"/>
<path d="M252.299 275.25L344.399 211.75L343.399 210.05L238.399 275.25H252.299Z" fill="#AE132A"/>
<path d="M281.499 275.25L347.199 216.25L345.699 213.75L266.899 275.25H281.499Z" fill="#AE132A"/>
<path d="M309.999 275.25L350.999 222.55L348.999 219.35L295.399 275.25H309.999Z" fill="#AE132A"/>
<path d="M382.799 275.25C382.799 275.25 362.999 243.25 353.799 227.35L323.899 275.25H382.799Z" fill="#AE132A"/>
</svg>
