<svg width="25" height="25" viewBox="0 0 25 25" fill="none" xmlns="http://www.w3.org/2000/svg">
<path d="M21.3428 12.5283C21.3428 17.4989 17.3133 21.5283 12.3428 21.5283C7.37221 21.5283 3.34277 17.4989 3.34277 12.5283C3.34277 7.55776 7.37221 3.52832 12.3428 3.52832C17.3133 3.52832 21.3428 7.55776 21.3428 12.5283Z" fill="#F5F5F5"/>
<path d="M3.3977 11.5283H5.34277C6.44734 11.5283 7.34277 12.4238 7.34277 13.5283V14.5283C7.34277 15.6329 8.2382 16.5283 9.34277 16.5283C10.4473 16.5283 11.3428 17.4238 11.3428 18.5283V21.4734M8.34277 4.46384V6.02832C8.34277 7.40903 9.46206 8.52832 10.8428 8.52832H11.3428C12.4473 8.52832 13.3428 9.42375 13.3428 10.5283C13.3428 11.6329 14.2382 12.5283 15.3428 12.5283C16.4473 12.5283 17.3428 11.6329 17.3428 10.5283C17.3428 9.42375 18.2382 8.52832 19.3428 8.52832L20.4073 8.52832M15.3428 21.0162V18.5283C15.3428 17.4238 16.2382 16.5283 17.3428 16.5283H20.4073M21.3428 12.5283C21.3428 17.4989 17.3133 21.5283 12.3428 21.5283C7.37221 21.5283 3.34277 17.4989 3.34277 12.5283C3.34277 7.55776 7.37221 3.52832 12.3428 3.52832C17.3133 3.52832 21.3428 7.55776 21.3428 12.5283Z" stroke="#3B3B3B" stroke-width="2" stroke-linecap="round" stroke-linejoin="round"/>
</svg>
